<?xml version="1.0" standalone="no"?>
<!DOCTYPE svg PUBLIC "-//W3C//DTD SVG 20010904//EN"
 "http://www.w3.org/TR/2001/REC-SVG-20010904/DTD/svg10.dtd">
<svg version="1.0" xmlns="http://www.w3.org/2000/svg"
 width="128.000000pt" height="128.000000pt" viewBox="0 0 128.000000 128.000000"
 preserveAspectRatio="xMidYMid meet">

<g transform="translate(0.000000,128.000000) scale(0.100000,-0.100000)"
fill="#FFF" stroke="none">
<path d="M903 1173 c-37 -7 -63 -50 -63 -102 0 -61 17 -92 63 -114 48 -24 100
-9 128 37 25 41 28 171 3 180 -17 7 -95 6 -131 -1z m107 -92 c0 -52 -3 -62
-26 -80 -15 -12 -32 -21 -39 -21 -7 0 -24 9 -39 21 -21 16 -26 29 -26 64 0 54
25 75 87 75 l43 0 0 -59z"/>
<path d="M539 966 c-119 -99 -132 -128 -78 -169 34 -25 51 -19 129 47 57 49
66 53 91 44 15 -5 30 -15 32 -22 4 -10 -152 -367 -167 -383 0 -1 -59 19 -130
43 -104 36 -132 42 -141 32 -15 -17 -55 -124 -55 -148 0 -33 63 -41 110 -14
26 16 32 15 124 -16 112 -37 149 -35 193 9 16 16 37 47 48 70 10 23 23 40 29
38 6 -3 48 -20 92 -38 l82 -33 36 -117 c20 -64 36 -134 36 -156 0 -49 7 -53
100 -53 47 0 71 4 80 15 18 22 3 72 -31 98 -25 19 -37 46 -70 153 -22 71 -47
139 -55 153 -9 13 -43 35 -75 49 -32 14 -59 28 -59 32 0 4 16 42 35 84 37 82
52 91 105 61 59 -34 117 -13 213 77 76 73 85 102 42 136 -34 27 -58 19 -130
-45 -33 -29 -67 -52 -75 -49 -8 2 -36 12 -62 22 -47 18 -48 18 -70 -2 -51 -46
-79 -37 -87 28 -6 41 -9 44 -70 76 -45 22 -78 32 -111 32 -41 0 -53 -6 -111
-54z m164 8 c3 -4 2 -15 -4 -25 -7 -14 -17 -17 -33 -13 -18 4 -39 -8 -95 -55
-45 -37 -77 -58 -87 -54 -25 9 -12 29 61 92 61 53 75 61 111 61 22 0 44 -3 47
-6z m66 -34 c11 -5 21 -26 25 -48 11 -72 80 -100 130 -53 20 19 28 21 45 11
28 -15 12 -47 -24 -47 -37 0 -48 -14 -89 -108 l-38 -84 -35 14 c-45 19 -73 19
-73 1 0 -8 33 -28 78 -46 42 -18 80 -34 84 -37 8 -4 -12 -53 -21 -53 -4 0 -38
13 -76 30 -76 32 -74 32 -110 -23 -8 -13 -15 -14 -37 -4 l-27 12 81 174 81
174 -17 31 c-9 18 -14 40 -10 49 7 20 9 20 33 7z m471 -23 c0 -13 -57 -71
-118 -120 -48 -38 -122 -34 -106 6 4 11 17 17 36 17 23 0 45 14 90 55 56 52
98 70 98 42z m-911 -406 c21 -13 -16 -85 -46 -89 -22 -3 -22 -3 -8 38 23 64
27 68 54 51z m625 -10 c9 -10 33 -70 52 -132 19 -63 36 -120 39 -126 3 -8 -5
-13 -20 -13 -22 0 -27 9 -56 103 -17 56 -40 112 -51 124 -13 14 -18 28 -13 42
8 26 27 27 49 2z m-484 -36 c69 -23 110 -25 110 -5 0 4 14 3 30 -3 37 -14 37
-20 4 -46 -34 -27 -52 -26 -149 5 -90 30 -100 36 -92 58 8 21 10 20 97 -9z
m634 -291 c24 -24 10 -34 -45 -34 -46 0 -49 2 -49 25 0 22 4 25 39 25 23 0 46
-7 55 -16z"/>
<path d="M293 894 c-7 -3 -13 -12 -13 -20 0 -10 14 -14 51 -14 43 0 50 3 47
18 -3 17 -58 27 -85 16z"/>
<path d="M47 804 c-14 -15 8 -34 39 -34 27 0 34 4 34 20 0 16 -7 20 -33 20
-19 0 -36 -3 -40 -6z"/>
<path d="M174 799 c-13 -22 16 -30 107 -27 80 3 94 6 97 21 3 15 -7 17 -97 17
-61 0 -102 -4 -107 -11z"/>
<path d="M0 706 c0 -8 7 -17 16 -20 25 -9 557 -7 573 3 41 26 -7 31 -295 31
-245 0 -294 -2 -294 -14z"/>
<path d="M175 630 c-16 -25 14 -30 191 -30 177 0 184 1 184 20 0 19 -7 20
-184 20 -113 0 -187 -4 -191 -10z"/>
</g>
</svg>
